<svg class="marks" width="357" height="284" viewBox="0 0 357 284" version="1.1" xmlns="http://www.w3.org/2000/svg" xmlns:xlink="http://www.w3.org/1999/xlink"><rect width="357" height="284" style="fill: white;"></rect><g transform="translate(27,22)"><g class="mark-group role-frame root"><g transform="translate(0,0)"><path class="background" d="M0,0h300v240h-300Z" style="fill: none;"></path><g><g class="mark-group role-axis"><g transform="translate(0.5,240.5)"><path class="background" d="M0,0h0v0h0Z" style="pointer-events: none; fill: none;"></path><g><g class="mark-rule role-axis-tick" style="pointer-events: none;"><line transform="translate(0,0)" x2="0" y2="5" style="fill: none; stroke: #888; stroke-width: 1; opacity: 1;"></line><line transform="translate(75,0)" x2="0" y2="5" style="fill: none; stroke: #888; stroke-width: 1; opacity: 1;"></line><line transform="translate(153,0)" x2="0" y2="5" style="fill: none; stroke: #888; stroke-width: 1; opacity: 1;"></line><line transform="translate(230,0)" x2="0" y2="5" style="fill: none; stroke: #888; stroke-width: 1; opacity: 1;"></line><line transform="translate(300,0)" x2="0" y2="5" style="fill: none; stroke: #888; stroke-width: 1; opacity: 1;"></line></g><g class="mark-text role-axis-label" style="pointer-events: none;"><text text-anchor="start" transform="translate(0,15)" style="font-family: sans-serif; font-size: 10px; fill: #000; opacity: 1;">Nov '08</text><text text-anchor="middle" transform="translate(75,15)" style="font-family: sans-serif; font-size: 10px; fill: #000; opacity: 1;">Dec '08</text><text text-anchor="middle" transform="translate(152.5,15)" style="font-family: sans-serif; font-size: 10px; fill: #000; opacity: 1;">Jan '09</text><text text-anchor="middle" transform="translate(230.00000000000003,15)" style="font-family: sans-serif; font-size: 10px; fill: #000; opacity: 1;">Feb '09</text><text text-anchor="end" transform="translate(300,15)" style="font-family: sans-serif; font-size: 10px; fill: #000; opacity: 1;">Mar '09</text></g><g class="mark-rule role-axis-domain" style="pointer-events: none;"><line transform="translate(0,0)" x2="300" y2="0" style="fill: none; stroke: #888; stroke-width: 1; opacity: 1;"></line></g></g><path class="foreground" d="" style="pointer-events: none; display: none; fill: none;"></path></g></g><g class="mark-group role-axis"><g transform="translate(0.5,0.5)"><path class="background" d="M0,0h0v0h0Z" style="pointer-events: none; fill: none;"></path><g><g class="mark-rule role-axis-tick" style="pointer-events: none;"><line transform="translate(0,240)" x2="-5" y2="0" style="fill: none; stroke: #888; stroke-width: 1; opacity: 1;"></line><line transform="translate(0,187)" x2="-5" y2="0" style="fill: none; stroke: #888; stroke-width: 1; opacity: 1;"></line><line transform="translate(0,133)" x2="-5" y2="0" style="fill: none; stroke: #888; stroke-width: 1; opacity: 1;"></line><line transform="translate(0,80)" x2="-5" y2="0" style="fill: none; stroke: #888; stroke-width: 1; opacity: 1;"></line><line transform="translate(0,27)" x2="-5" y2="0" style="fill: none; stroke: #888; stroke-width: 1; opacity: 1;"></line></g><g class="mark-text role-axis-label" style="pointer-events: none;"><text text-anchor="end" transform="translate(-7,243)" style="font-family: sans-serif; font-size: 10px; fill: #000; opacity: 1;">0%</text><text text-anchor="end" transform="translate(-7,189.66666666666666)" style="font-family: sans-serif; font-size: 10px; fill: #000; opacity: 1;">2%</text><text text-anchor="end" transform="translate(-7,136.33333333333334)" style="font-family: sans-serif; font-size: 10px; fill: #000; opacity: 1;">4%</text><text text-anchor="end" transform="translate(-7,83.00000000000001)" style="font-family: sans-serif; font-size: 10px; fill: #000; opacity: 1;">6%</text><text text-anchor="end" transform="translate(-7,29.66666666666665)" style="font-family: sans-serif; font-size: 10px; fill: #000; opacity: 1;">8%</text></g></g><path class="foreground" d="" style="pointer-events: none; display: none; fill: none;"></path></g></g><g class="mark-line role-mark layer_0_layer_0_marks"><path d="M0,58.66666666666664L230.00000000000003,23.999999999999993L300,13.333333333333313" style="fill: none; stroke: #4c78a8; stroke-width: 2;"></path></g><g class="mark-symbol role-mark layer_0_layer_1_marks"><path transform="translate(0,58.66666666666664)" d="M2.7386127875258306,0A2.7386127875258306,2.7386127875258306,0,1,1,-2.7386127875258306,0A2.7386127875258306,2.7386127875258306,0,1,1,2.7386127875258306,0" style="fill: #4c78a8; stroke-width: 2; opacity: 1;"></path><path transform="translate(230.00000000000003,23.999999999999993)" d="M2.7386127875258306,0A2.7386127875258306,2.7386127875258306,0,1,1,-2.7386127875258306,0A2.7386127875258306,2.7386127875258306,0,1,1,2.7386127875258306,0" style="fill: #4c78a8; stroke-width: 2; opacity: 1;"></path><path transform="translate(300,13.333333333333313)" d="M2.7386127875258306,0A2.7386127875258306,2.7386127875258306,0,1,1,-2.7386127875258306,0A2.7386127875258306,2.7386127875258306,0,1,1,2.7386127875258306,0" style="fill: #4c78a8; stroke-width: 2; opacity: 1;"></path></g><g class="mark-text role-mark layer_1_marks"><text text-anchor="middle" transform="translate(12,73.66666666666664)" style="font-family: sans-serif; font-size: 11px; fill: black;">6.8%</text><text text-anchor="middle" transform="translate(242.00000000000003,38.99999999999999)" style="font-family: sans-serif; font-size: 11px; fill: black;">8.1%</text><text text-anchor="middle" transform="translate(312,28.333333333333314)" style="font-family: sans-serif; font-size: 11px; fill: black;">8.5%</text></g><g class="mark-group role-title"><g transform="translate(150,-17)"><path class="background" d="M0,0h0v0h0Z" style="pointer-events: none; fill: none;"></path><g><g class="mark-text role-title-text" style="pointer-events: none;"><text text-anchor="middle" transform="translate(0,10)" style="font-family: sans-serif; font-size: 13px; font-weight: bold; fill: #000; opacity: 1;">Unemployment rate in the USA, seasonally adjusted</text></g></g><path class="foreground" d="" style="pointer-events: none; display: none; fill: none;"></path></g></g></g><path class="foreground" d="" style="display: none; fill: none;"></path></g></g></g></svg>